<svg width='200' height='200' fill="#B36AE2" xmlns="http://www.w3.org/2000/svg" xmlns:xlink="http://www.w3.org/1999/xlink" version="1.1" x="0px" y="0px" viewBox="0 0 100 100" style="enable-background:new 0 0 100 100;" xml:space="preserve"><g><path d="M89.7,19.6c0-0.1-0.1-0.3-0.2-0.4c0,0,0,0,0,0c-0.1-0.1-0.2-0.2-0.3-0.3c0,0,0,0-0.1-0.1c-0.1-0.1-0.2-0.2-0.4-0.2   c0,0,0,0,0,0L78,14.3c-0.1-1-0.8-2.6-3.6-3.7c-2.3-0.9-5.5-1.3-8.5-1.1l-5.3-2.1c-0.1-1-0.9-2.5-3.6-3.6c-3.9-1.6-10.1-1.6-14,0   c-2.8,1.1-3.5,2.6-3.6,3.6l-5.3,2.1c-3-0.2-6.1,0.2-8.4,1.1c-2.8,1.1-3.5,2.7-3.6,3.7l-10.9,4.4c0,0,0,0,0,0   c-0.1,0.1-0.2,0.1-0.4,0.2c0,0-0.1,0-0.1,0.1c-0.1,0.1-0.2,0.2-0.3,0.3c0,0,0,0,0,0c-0.1,0.1-0.1,0.2-0.2,0.4c0,0,0,0.1,0,0.1   c0,0.1-0.1,0.3-0.1,0.4v14.1c0,0.6,0.4,1.2,1,1.5l16.3,6.5c-0.6,0.2-1.2,0.3-1.8,0.6c-2.8,1.1-3.5,2.7-3.6,3.7l-10.9,4.4   c0,0,0,0,0,0c-0.1,0.1-0.2,0.1-0.4,0.2c0,0-0.1,0-0.1,0.1c-0.1,0.1-0.2,0.2-0.3,0.3c0,0,0,0,0,0c-0.1,0.1-0.1,0.2-0.2,0.4   c0,0,0,0.1,0,0.1c0,0.1-0.1,0.3-0.1,0.4v14.1v14.1c0,0.6,0.4,1.2,1,1.5l38.3,15.3c0,0,0,0,0,0c0.2,0.1,0.4,0.1,0.6,0.1   s0.4,0,0.6-0.1c0,0,0,0,0,0L88.8,82c0.6-0.2,1-0.8,1-1.5V66.4V52.3c0-0.1,0-0.3-0.1-0.4c0,0,0-0.1,0-0.1c0-0.1-0.1-0.3-0.2-0.4   c0,0,0,0,0,0c-0.1-0.1-0.2-0.2-0.3-0.3c0,0,0,0-0.1-0.1c-0.1-0.1-0.2-0.2-0.4-0.2c0,0,0,0,0,0L78,46.5c-0.1-1-0.8-2.6-3.6-3.7   c-0.6-0.2-1.2-0.4-1.8-0.6l16.3-6.5c0.6-0.2,1-0.8,1-1.5V20.1C89.8,20,89.8,19.8,89.7,19.6C89.8,19.7,89.8,19.6,89.7,19.6z    M78,20.3c0-0.1,0-0.1,0-0.2v-2.4l6,2.4l-8.3,3.3C77.5,22.3,77.9,21.1,78,20.3z M61.5,13.5c3.2-1.3,8.5-1.3,11.7,0   c1.3,0.5,1.6,1,1.7,1.1c0,0.1-0.4,0.6-1.7,1.1c-3.2,1.3-8.5,1.3-11.7,0c-1.3-0.5-1.6-1-1.7-1.1C59.9,14.5,60.2,14,61.5,13.5z    M74.9,18.4v1.6c0,0,0,0,0,0c0,0.1-0.4,0.6-1.7,1.1c-3.2,1.3-8.5,1.3-11.7,0c-0.4-0.2-0.7-0.3-1-0.5c-0.1-0.4-0.3-0.9-0.7-1.3v-1   c0.2,0.1,0.3,0.1,0.5,0.2c2,0.8,4.5,1.2,7,1.2c2.5,0,5-0.4,7-1.2C74.5,18.6,74.7,18.5,74.9,18.4z M60.6,27.2c0-0.1,0-0.1,0-0.2   v-2.8c1.9,0.7,4.3,1.1,6.7,1.1c1.8,0,3.6-0.2,5.2-0.6l-14.2,5.7C60.2,29.3,60.6,28,60.6,27.2z M44.2,6.7C45.7,6,47.9,5.7,50,5.7   s4.3,0.3,5.8,1c1.3,0.5,1.6,1,1.7,1.1c0,0.1-0.4,0.6-1.7,1.1c-3.2,1.3-8.5,1.3-11.7,0c0,0,0,0,0,0c-1.3-0.5-1.6-1-1.7-1.1   C42.5,7.7,42.9,7.2,44.2,6.7z M55.8,14.4c-3.2,1.3-8.5,1.3-11.7,0c-0.4-0.1-0.6-0.3-0.9-0.4c-0.1-0.5-0.3-1-0.8-1.5v-0.8   c0.2,0.1,0.3,0.1,0.5,0.2v0c2,0.8,4.5,1.2,7,1.2c2.5,0,5-0.4,7-1.2c0.2-0.1,0.3-0.1,0.5-0.2v0.9c-0.4,0.5-0.6,1-0.7,1.4   C56.5,14.1,56.2,14.2,55.8,14.4z M56.7,17.4L56.7,17.4C56.7,17.4,56.7,17.4,56.7,17.4C56.7,17.4,56.7,17.4,56.7,17.4z M44.2,20.4   c1.6-0.6,3.7-0.9,5.8-0.9s4.3,0.3,5.8,1c1.3,0.5,1.6,1,1.7,1.1c0,0.1-0.4,0.6-1.7,1.1c-3.2,1.3-8.5,1.3-11.7,0c0,0,0,0,0,0   c-1.3-0.5-1.6-1-1.7-1.1C42.5,21.4,42.9,20.9,44.2,20.4z M57.5,53.7c0,0.1-0.4,0.6-1.7,1.1c-3.2,1.3-8.5,1.3-11.7,0c0,0,0,0,0,0   c-1.3-0.5-1.6-1-1.7-1.1c0-0.1,0.4-0.6,1.7-1.1c1.6-0.6,3.7-0.9,5.8-0.9s4.3,0.3,5.8,1C57.1,53.1,57.5,53.6,57.5,53.7z M56.7,49.6   C56.7,49.6,56.7,49.6,56.7,49.6L56.7,49.6C56.7,49.6,56.7,49.6,56.7,49.6z M57.5,57.5v1.6c0,0,0,0,0,0c0,0.1-0.4,0.6-1.7,1.1   c-3.2,1.3-8.5,1.3-11.7,0c-1.3-0.5-1.6-1-1.7-1.1c0,0,0,0,0-0.1v-1.6c0.2,0.1,0.3,0.1,0.5,0.2v0c2,0.8,4.5,1.2,7,1.2   c2.5,0,5-0.4,7-1.2C57.2,57.7,57.3,57.6,57.5,57.5z M44.7,31.6c1.6,0.4,3.5,0.6,5.3,0.6c1.9,0,3.7-0.2,5.3-0.6L50,33.7L44.7,31.6z    M44.2,28.1c-1.3-0.5-1.6-1-1.7-1.1c0,0,0,0,0-0.1v-1.6c0.2,0.1,0.3,0.1,0.5,0.2v0c2,0.8,4.5,1.2,7,1.2c2.5,0,5-0.4,7-1.2   c0.2-0.1,0.3-0.1,0.5-0.2V27c0,0,0,0,0,0c0,0.1-0.4,0.6-1.7,1.1C52.7,29.4,47.3,29.4,44.2,28.1z M41.7,30.4l-14.3-5.7   c1.6,0.4,3.5,0.6,5.3,0.6c2.4,0,4.7-0.4,6.6-1.1V27c0,0.1,0,0.1,0,0.2C39.4,28,39.9,29.3,41.7,30.4z M32.7,19.8c2.5,0,5-0.4,7-1.2   c0.2-0.1,0.3-0.1,0.5-0.2v0.9c-0.4,0.5-0.7,1-0.8,1.5c-0.2,0.1-0.5,0.3-0.9,0.4c-3.2,1.3-8.5,1.3-11.7,0c-1.3-0.5-1.6-1-1.7-1.1   c0,0,0,0,0-0.1v-1.6c0.2,0.1,0.3,0.1,0.5,0.2v0C27.7,19.4,30.2,19.8,32.7,19.8z M26.9,13.5c3.2-1.3,8.5-1.3,11.7,0   c1.3,0.5,1.6,1,1.7,1.1c0,0.1-0.4,0.6-1.7,1.1c-3.2,1.3-8.5,1.3-11.7,0c-1.3-0.5-1.6-1-1.7-1.1C25.2,14.5,25.6,14,26.9,13.5z    M22.1,17.7v2.5c0,0.1,0,0.1,0,0.2c0.1,0.8,0.5,2.1,2.3,3.2L16,20.1L22.1,17.7z M13.3,33.2V22.4l35.1,14v10.8L13.3,33.2z M32.7,52   c2.5,0,5-0.4,7-1.2c0.2-0.1,0.3-0.1,0.5-0.2v0.9c-0.4,0.5-0.7,1-0.8,1.5c-0.2,0.1-0.5,0.3-0.9,0.4c-3.2,1.3-8.5,1.3-11.7,0   c-1.3-0.5-1.6-1-1.7-1.1c0,0,0,0,0-0.1v-1.6c0.2,0.1,0.3,0.1,0.5,0.2v0C27.7,51.6,30.2,52,32.7,52z M32.7,57.5   c2.4,0,4.7-0.4,6.6-1.1v2.8c0,0.1,0,0.1,0,0.2c0.1,0.8,0.5,2.1,2.3,3.2l-14.3-5.7C29,57.3,30.9,57.5,32.7,57.5z M26.9,45.7   c1.9-0.7,4.5-1,7-0.9l6,2.4c-0.3,0.2-0.7,0.5-1.3,0.7c-3.2,1.3-8.5,1.3-11.7,0c-1.3-0.5-1.6-1-1.7-1.1   C25.2,46.7,25.6,46.2,26.9,45.7z M22.1,49.9v2.5c0,0.1,0,0.1,0,0.2c0.1,0.8,0.5,2.1,2.3,3.2L16,52.3L22.1,49.9z M48.4,93.6   l-35.1-14V68.8l35.1,14V93.6z M48.4,79.4l-35.1-14V54.6l35.1,14V79.4z M50,65.9l-5.3-2.1c1.6,0.4,3.5,0.6,5.3,0.6   c1.9,0,3.7-0.2,5.3-0.6L50,65.9z M86.7,79.5l-35.1,14V82.8l35.1-14V79.5z M86.7,65.4l-35.1,14V68.7l35.1-14V65.4z M60.6,59.4   c0-0.1,0-0.1,0-0.2v-2.8c1.9,0.7,4.3,1.1,6.7,1.1c1.8,0,3.6-0.2,5.2-0.6l-14.2,5.7C60.2,61.5,60.6,60.2,60.6,59.4z M59.8,51.6v-1   c0.2,0.1,0.3,0.1,0.5,0.2c2,0.8,4.5,1.2,7,1.2c2.5,0,5-0.4,7-1.2c0.2-0.1,0.3-0.1,0.5-0.2v1.6c0,0,0,0,0,0c0,0.1-0.4,0.6-1.7,1.1   c-3.2,1.3-8.5,1.3-11.7,0c-0.4-0.2-0.7-0.3-1-0.5C60.4,52.5,60.2,52.1,59.8,51.6z M78,52.5c0-0.1,0-0.1,0-0.2v-2.4l6,2.4l-8.3,3.3   C77.5,54.5,77.9,53.3,78,52.5z M73.2,45.7c1.3,0.5,1.6,1,1.7,1.1c0,0.1-0.4,0.6-1.7,1.1c-3.2,1.3-8.5,1.3-11.7,0   c-0.7-0.3-1.1-0.5-1.3-0.7l6-2.4C68.6,44.6,71.3,44.9,73.2,45.7z M86.7,33.2l-35.1,14V36.5l35.1-14V33.2z"/></g></svg>